<svg xmlns="http://www.w3.org/2000/svg" xmlns:xlink="http://www.w3.org/1999/xlink" viewBox="0,0,256,256" width="48px" height="48px" fill-rule="nonzero"><g fill="#339af0" fill-rule="nonzero" stroke="none" stroke-width="1" stroke-linecap="butt" stroke-linejoin="miter" stroke-miterlimit="10" stroke-dasharray="" stroke-dashoffset="0" font-family="none" font-weight="none" font-size="none" text-anchor="none" style="mix-blend-mode: normal"><g transform="scale(8,8)"><path d="M10.35156,4c-0.234,0 -0.35156,0.11656 -0.35156,0.35156v23.29297c0,0.234 0.11656,0.35156 0.35156,0.35156h2.29688c0.234,0 0.35351,-0.11656 0.35351,-0.35156v-4.83594l1.80859,-1.72266l5.23828,6.66406c0.142,0.165 0.30609,0.25 0.49609,0.25h3.17188c0.166,0 0.2602,-0.04758 0.2832,-0.14258l-0.06641,-0.35937l-6.91016,-8.58789l6.62695,-6.41211c0.123,-0.128 0.08005,-0.49805 -0.25195,-0.49805h-3.28125c-0.166,0 -0.33205,0.08595 -0.49805,0.25195l-6.61914,6.72266v-14.62305c0,-0.235 -0.11656,-0.35156 -0.35156,-0.35156z"></path></g></g></svg>